<?xml version="1.0" encoding="UTF-8" standalone="no"?><svg width="418px" height="85px" viewBox="0 0 418 85" version="1.1" xmlns="http://www.w3.org/2000/svg" xmlns:xlink="http://www.w3.org/1999/xlink"><defs><linearGradient x1="0" y1="0.5" x2="1" y2="0.5" id="linearGradientSkk990b3y80m"><stop offset="0%" stop-color="#ffffff"></stop><stop offset="100%" stop-color="#ffffff"></stop></linearGradient><linearGradient x1="0" y1="0.5" x2="1" y2="0.5" id="linearGradientSkk990b3y80p"><stop offset="0%" stop-color="#ffffff"></stop><stop offset="100%" stop-color="#ffffff"></stop></linearGradient><linearGradient x1="0" y1="0.5" x2="1" y2="0.5" id="linearGradientSkk990b3y80s"><stop offset="0%" stop-color="#ffffff"></stop><stop offset="6.16%" stop-color="#ffffff"></stop><stop offset="100%" stop-color="#ffffff"></stop></linearGradient><linearGradient x1="0" y1="0.5" x2="1" y2="0.5" id="linearGradientSkk990b3y80w"><stop offset="0%" stop-color="#656c7f"></stop><stop offset="100%" stop-color="#656c7f"></stop></linearGradient><linearGradient x1="0" y1="0.5" x2="1" y2="0.5" id="linearGradientSkk990b3y80z"><stop offset="0%" stop-color="#656c7f"></stop><stop offset="100%" stop-color="#656c7f"></stop></linearGradient><linearGradient x1="0" y1="0.5" x2="1" y2="0.5" id="linearGradientSkk990b3y816"><stop offset="0%" stop-color="#2d3038"></stop><stop offset="100%" stop-color="#2d3038"></stop></linearGradient><linearGradient x1="0" y1="0.5" x2="1" y2="0.5" id="linearGradientSkk990b3y81d"><stop offset="0%" stop-color="#656c7f"></stop><stop offset="100%" stop-color="#656c7f"></stop></linearGradient><linearGradient x1="0" y1="0.5" x2="1" y2="0.5" id="linearGradientSkk990b3y81k"><stop offset="0%" stop-color="#2d3038"></stop><stop offset="100%" stop-color="#2d3038"></stop></linearGradient><linearGradient x1="0" y1="0.5" x2="1" y2="0.5" id="linearGradientSkk990b3y81r"><stop offset="0%" stop-color="#2d3038"></stop><stop offset="100%" stop-color="#2d3038"></stop></linearGradient><linearGradient x1="0" y1="0.5" x2="1" y2="0.5" id="linearGradientSkk990b3y81u"><stop offset="0%" stop-color="#ffffff"></stop><stop offset="6.16%" stop-color="#ffffff"></stop><stop offset="100%" stop-color="#ffffff"></stop></linearGradient><linearGradient x1="0" y1="0.5" x2="1" y2="0.5" id="linearGradientSkk990b3y81y"><stop offset="0%" stop-color="#656c7f"></stop><stop offset="100%" stop-color="#656c7f"></stop></linearGradient><linearGradient x1="0" y1="0.5" x2="1" y2="0.5" id="linearGradientSkk990b3y821"><stop offset="0%" stop-color="#ffffff"></stop><stop offset="6.16%" stop-color="#ffffff"></stop><stop offset="100%" stop-color="#ffffff"></stop></linearGradient><linearGradient x1="0" y1="0.5" x2="1" y2="0.5" id="linearGradientSkk990b3y825"><stop offset="0%" stop-color="#656c7f"></stop><stop offset="100%" stop-color="#656c7f"></stop></linearGradient><linearGradient x1="0" y1="0.5" x2="1" y2="0.5" id="linearGradientSkk990b3y828"><stop offset="0%" stop-color="#656c7f"></stop><stop offset="100%" stop-color="#656c7f"></stop></linearGradient><linearGradient x1="0" y1="0.5" x2="1" y2="0.5" id="linearGradientSkk990b3y82f"><stop offset="0%" stop-color="#2d3038"></stop><stop offset="100%" stop-color="#2d3038"></stop></linearGradient><linearGradient x1="0" y1="0.5" x2="1" y2="0.5" id="linearGradientSkk990b3y82m"><stop offset="0%" stop-color="#2d3038"></stop><stop offset="100%" stop-color="#2d3038"></stop></linearGradient></defs><g class="svg-clip svg-visible" transform="matrix(0,0.4515,-0.4515,0,85.3262,-0.4201)"><rect x="0" y="0" width="187" height="186" fill="none" class="svg-hitbox" style=""></rect><svg width="187.0337218024264" height="186.77" viewBox="-5.131860901213205,-5,187.0337218024264,186.77" class="thumb"><g><circle cx="88.385" cy="88.385" r="88.385" fill="url('#linearGradientSkk990b3y821')" stroke="none"></circle></g></svg></g><g class="svg-clip svg-visible" transform="matrix(0.6355,0,0,0.6355,16.15,23.4338)"><rect x="0" y="0" width="54" height="75" fill="none" class="svg-hitbox" style=""></rect><svg width="54.286" height="75.723" viewBox="0,24.070999999999998,54.286,75.723"><g><path d="M27.143,94.794C14.932,94.794,5,84.862,5,72.652V35.498c0-3.549,2.877-6.427,6.428-6.427s6.428,2.878,6.428,6.427v37.155   c0,5.121,4.166,9.287,9.287,9.287s9.287-4.166,9.287-9.287c-0.003-3.505-1.942-6.674-5.068-8.279   c-3.158-1.62-4.406-5.493-2.786-8.655c1.62-3.16,5.496-4.405,8.654-2.788c7.433,3.814,12.056,11.37,12.056,19.72   C49.285,84.862,39.354,94.794,27.143,94.794z" fill="url('#linearGradientSkk990b3y82m')" stroke="none" style=""></path></g></svg></g><g class="svg-clip svg-visible" transform="matrix(0.6355,0,0,0.6355,30.7342,22.7311)"><rect x="0" y="0" width="54" height="60" fill="none" class="svg-hitbox" style=""></rect><svg width="54.283998488064526" height="60.77245365939481" viewBox="22.85800177227331,23.310546340605185,54.283998488064526,60.77245365939481"><g><path d="M65.715,79.083c-3.551,0-6.431-2.88-6.431-6.431c0-15.46-11.01-28.752-26.177-31.594c-3.492-0.654-5.789-4.014-5.139-7.5   c0.656-3.492,4.02-5.791,7.506-5.136c21.246,3.981,36.668,22.584,36.668,44.23C72.143,76.203,69.263,79.083,65.715,79.083z" fill="url('#linearGradientSkk990b3y81r')" stroke="none" style=""></path></g></svg></g><g class="svg-clip svg-visible" transform="matrix(0.6355,0,0,0.6355,30.7179,7.2191)"><rect x="0" y="0" width="77" height="83" fill="none" class="svg-hitbox" style=""></rect><svg width="77.14463083752358" height="83.87771854211059" viewBox="22.855369162476425,0.2052814578894191,77.14463083752358,83.87771854211059"><g><path d="M88.572,79.083c-3.551,0-6.431-2.88-6.431-6.431c0-27.938-20.892-51.424-48.595-54.632   c-3.527-0.409-6.053-3.599-5.648-7.126c0.41-3.526,3.583-6.047,7.128-5.647C69.216,9.207,95,38.185,95,72.652   C95,76.203,92.123,79.083,88.572,79.083z" fill="url('#linearGradientSkk990b3y816')" stroke="none" style=""></path></g></svg></g><g class="svg-text svg-visible" transform="matrix(0.6382,0,0,0.6382,235,21)" style="pointer-events: fill; cursor: move; opacity: 1;"><path fill="none" style="" d="M-201.8,106.1 C-20,105.1 20,105.1 201.8,106.1"></path><path d="M-169.10000000000002-53L-169.10000000000002-53L-177.8-53Q-179.8-53 -179.8-56.5Q-179.8-60 -177.8-60L-177.8-60L-169.10000000000002-60Q-159.3-60 -153.4-56.25Q-147.5-52.5 -147.5-44.2L-147.5-44.2L-147.5-14.3Q-147.5-6 -153.45000000000002-2.25Q-159.4 1.5 -169.20000000000002 1.5Q-179 1.5 -184.9-2.25Q-190.8-6 -190.8-14.3L-190.8-14.3L-190.8-77.7Q-190.8-80 -186.8-80Q-182.8-80 -182.8-77.7L-182.8-77.7L-182.8-13.3Q-182.8-5.5 -169.15-5.5Q-155.5-5.5 -155.5-13.3L-155.5-13.3L-155.5-45.2Q-155.5-53 -169.10000000000002-53ZM-101.20000000000003 0L-101.20000000000003 0L-112.90000000000003 0Q-121.70000000000003 0 -125.60000000000002-3.6Q-129.50000000000003-7.2 -129.50000000000003-15.8L-129.50000000000003-15.8L-129.50000000000003-16.6Q-129.50000000000003-25.1 -126.00000000000003-28.3Q-122.50000000000003-31.5 -113.50000000000003-32.4L-113.50000000000003-32.4L-96.20000000000003-34.1L-96.20000000000003-45.2Q-96.20000000000003-53 -109.80000000000003-53L-109.80000000000003-53L-123.50000000000003-53Q-125.50000000000003-53 -125.50000000000003-56.5Q-125.50000000000003-60 -123.50000000000003-60L-123.50000000000003-60L-109.80000000000003-60Q-100.00000000000003-60 -94.10000000000002-56.25Q-88.20000000000003-52.5 -88.20000000000003-44.2L-88.20000000000003-44.2L-88.20000000000003-14.7Q-88.20000000000003-8.2 -85.90000000000003-4.4L-85.90000000000003-4.4Q-85.20000000000003-3.2 -85.20000000000003-2.9L-85.20000000000003-2.9Q-85.20000000000003-1.7 -87.10000000000002-0.35Q-89.00000000000003 1 -90.30000000000003 1L-90.30000000000003 1Q-92.50000000000003 1 -94.35000000000002-3.15Q-96.20000000000003-7.3 -96.20000000000003-13.7L-96.20000000000003-13.7L-96.20000000000003-27.1L-112.90000000000003-25.4Q-118.30000000000003-24.8 -119.90000000000003-23Q-121.50000000000003-21.2 -121.50000000000003-16.6L-121.50000000000003-16.6L-121.50000000000003-15.8Q-121.50000000000003-11 -119.85000000000002-9Q-118.20000000000003-7 -112.90000000000003-7L-112.90000000000003-7L-101.20000000000003-7Q-99.20000000000003-7 -99.20000000000003-3.5Q-99.20000000000003 0 -101.20000000000003 0ZM-58.20000000000002-77.7L-58.20000000000002-77.7L-58.20000000000002-11.7Q-58.20000000000002-8.5 -56.70000000000002-5.75Q-55.20000000000002-3 -55.20000000000002-2.9L-55.20000000000002-2.9Q-55.20000000000002-1.7 -57.100000000000016-0.35Q-59.000000000000014 1 -60.30000000000002 1L-60.30000000000002 1Q-62.40000000000002 1 -64.30000000000001-2.65Q-66.20000000000002-6.3 -66.20000000000002-10.7L-66.20000000000002-10.7L-66.20000000000002-77.7Q-66.20000000000002-80 -62.20000000000002-80Q-58.20000000000002-80 -58.20000000000002-77.7ZM-10.900000000000006 0L-10.900000000000006 0L-22.6 0Q-31.400000000000002 0 -35.300000000000004-3.6Q-39.2-7.2 -39.2-15.8L-39.2-15.8L-39.2-16.6Q-39.2-25.1 -35.7-28.3Q-32.2-31.5 -23.200000000000003-32.4L-23.200000000000003-32.4L-5.900000000000006-34.1L-5.900000000000006-45.2Q-5.900000000000006-53 -19.500000000000004-53L-19.500000000000004-53L-33.2-53Q-35.2-53 -35.2-56.5Q-35.2-60 -33.2-60L-33.2-60L-19.500000000000004-60Q-9.700000000000003-60 -3.8000000000000043-56.25Q 2.0999999999999943-52.5  2.0999999999999943-44.2L 2.0999999999999943-44.2L 2.0999999999999943-14.7Q 2.0999999999999943-8.2  4.399999999999999-4.4L 4.399999999999999-4.4Q 5.099999999999994-3.2  5.099999999999994-2.9L 5.099999999999994-2.9Q 5.099999999999994-1.7  3.1999999999999957-0.35Q 1.2999999999999972 1  0 1L 0 1Q-2.200000000000003 1 -4.050000000000004-3.15Q-5.900000000000006-7.3 -5.900000000000006-13.7L-5.900000000000006-13.7L-5.900000000000006-27.1L-22.6-25.4Q-28.000000000000004-24.8 -29.6-23Q-31.200000000000003-21.2 -31.200000000000003-16.6L-31.200000000000003-16.6L-31.200000000000003-15.8Q-31.200000000000003-11 -29.550000000000004-9Q-27.900000000000002-7 -22.6-7L-22.6-7L-10.900000000000006-7Q-8.900000000000006-7 -8.900000000000006-3.5Q-8.900000000000006 0 -10.900000000000006 0ZM 67.4-45.7L 67.4-45.7L 67.4-1.8Q 67.4 0.5  63.40000000000001 0.5Q 59.40000000000001 0.5  59.40000000000001-1.8L 59.40000000000001-1.8L 59.40000000000001-46.7Q 59.40000000000001-54.5  45.750000000000014-54.5Q 32.100000000000016-54.5  32.100000000000016-46.7L 32.100000000000016-46.7L 32.100000000000016-1.8Q 32.100000000000016 0.5  28.100000000000016 0.5Q 24.100000000000016 0.5  24.100000000000016-1.8L 24.100000000000016-1.8L 24.100000000000016-45.7Q 24.100000000000016-54  30.000000000000014-57.75Q 35.90000000000002-61.5  45.70000000000002-61.5Q 55.500000000000014-61.5  61.45000000000002-57.75Q 67.4-54  67.4-45.7ZM 96.40000000000003-46.7L 96.40000000000003-46.7L 96.40000000000003-13.3Q 96.40000000000003-5.5  109.20000000000003-5.5Q 122.00000000000003-5.5  122.00000000000003-13.3L 122.00000000000003-13.3L 122.00000000000003-17.5Q 122.00000000000003-19.8  126.00000000000003-19.8Q 130.00000000000003-19.8  130.00000000000003-17.5L 130.00000000000003-17.5L 130.00000000000003-14.3Q 130.00000000000003-6  124.35000000000004-2.25Q 118.70000000000003 1.5  109.25000000000003 1.5Q 99.80000000000004 1.5  94.10000000000004-2.25Q 88.40000000000003-6  88.40000000000003-14.3L 88.40000000000003-14.3L 88.40000000000003-45.7Q 88.40000000000003-54  94.10000000000004-57.75Q 99.80000000000004-61.5  109.25000000000003-61.5Q 118.70000000000003-61.5  124.35000000000004-57.75Q 130.00000000000003-54  130.00000000000003-45.7L 130.00000000000003-45.7L 130.00000000000003-42.5Q 130.00000000000003-40.2  126.00000000000003-40.2Q 122.00000000000003-40.2  122.00000000000003-42.5L 122.00000000000003-42.5L 122.00000000000003-46.7Q 122.00000000000003-54.5  109.20000000000003-54.5Q 96.40000000000003-54.5  96.40000000000003-46.7ZM 191.8-45.9L 191.8-45.9L 191.8-42.9Q 191.8-34.4  188.3-31.2Q 184.8-28  175.50000000000003-27.1L 175.50000000000003-27.1L 156.00000000000003-25.2L 156.00000000000003-13.3Q 156.00000000000003-5.5  169.00000000000003-5.5L 169.00000000000003-5.5Q 183.8-5.5  183.8-12.3L 183.8-12.3L 183.8-16.1Q 183.8-18.4  187.8-18.4Q 191.8-18.4  191.8-16.1L 191.8-16.1L 191.8-13.3Q 191.8 1.5  169.80000000000004 1.5L 169.80000000000004 1.5Q 160.10000000000002 1.5  154.05000000000004-2.3Q 148.00000000000003-6.1  148.00000000000003-14.3L 148.00000000000003-14.3L 148.00000000000003-45.7Q 148.00000000000003-54  154.40000000000003-57.75Q 160.80000000000004-61.5  171.10000000000002-61.5Q 181.40000000000003-61.5  186.60000000000002-57.9Q 191.8-54.3  191.8-45.9ZM 156.00000000000003-46.7L 156.00000000000003-46.7L 156.00000000000003-32.2L 174.8-34.1Q 180.50000000000003-34.7  182.15000000000003-36.5Q 183.8-38.3  183.8-42.9L 183.8-42.9L 183.8-46.7Q 183.8-54.5  169.90000000000003-54.5Q 156.00000000000003-54.5  156.00000000000003-46.7Z" data-textpath="balance" data-text-anchor="middle" data-font-size="100" data-letterspacing="0" data-side="left" data-offset="0" data-dx="0" data-dy="94.57499999999999" data-href="" data-font="Offside" data-font-src="/Content/clientfonts/offside.woff" data-font-scale="contain" transform="translate(0,94.57499999999999)" data-xmlspace="preserve" fill="url('#linearGradientSkk990b3y80m')"></path><rect x="0" y="0" width="0" height="0"></rect></g><g class="svg-text svg-visible" transform="matrix(0.2565,0,0,0.2565,373,37)" style="pointer-events: fill; cursor: move; opacity: 1;"><path fill="none" style="" d="M-32.2,106.1 C-20,105.1 20,105.1 32.2,106.1"></path><path d="M-8.200000000000003-37L-8.200000000000003-37L 0.5-37Q 14.099999999999994-37  14.099999999999994-44.8L 14.099999999999994-44.8L 14.099999999999994-60.7Q 14.099999999999994-68.5  0.44999999999999574-68.5Q-13.200000000000003-68.5 -13.200000000000003-60.7L-13.200000000000003-60.7L-13.200000000000003-1.8Q-13.200000000000003 0.5 -17.200000000000003 0.5Q-21.200000000000003 0.5 -21.200000000000003-1.8L-21.200000000000003-1.8L-21.200000000000003-59.7Q-21.200000000000003-68 -15.300000000000004-71.75Q-9.400000000000002-75.5  0.3999999999999986-75.5Q 10.199999999999996-75.5  16.15-71.75Q 22.099999999999994-68  22.099999999999994-59.7L 22.099999999999994-59.7L 22.099999999999994-45.8Q 22.099999999999994-36.5  13.399999999999999-34.2L 13.399999999999999-34.2Q 15.699999999999996-32.1  17-27.4L 17-27.4Q 24.099999999999994-1.9  24.099999999999994-1.3L 24.099999999999994-1.3Q 24.099999999999994 0.5  20.599999999999994 0.5Q 17.099999999999994 0.5  16.4-1.8L 16.4-1.8L 10.099999999999994-24.6Q 9.199999999999996-28.1  7.599999999999994-29.05Q 6-30  0.5999999999999943-30L 0.5999999999999943-30L-8.200000000000003-30Q-10.200000000000003-30 -10.200000000000003-33.5Q-10.200000000000003-37 -8.200000000000003-37Z" data-textpath="R" data-text-anchor="middle" data-font-size="100" data-letterspacing="0" data-side="left" data-offset="0" data-dx="0" data-dy="94.57499999999999" data-href="" data-font="Offside" data-font-src="/Content/clientfonts/offside.woff" data-font-scale="contain" transform="translate(0,94.57499999999999)" data-xmlspace="preserve" fill="url('#linearGradientSkk990b3y80p')"></path><rect x="0" y="0" width="0" height="0"></rect></g></svg>