<?xml version="1.0" encoding="UTF-8" standalone="no"?><svg width="73px" height="73px" viewBox="0 0 73 73" version="1.1" xmlns="http://www.w3.org/2000/svg" xmlns:xlink="http://www.w3.org/1999/xlink" style="text-rendering: geometricprecision; cursor: auto;"><desc>Created with Snap</desc><defs><linearGradient x1="0" y1="0.5" x2="1" y2="0.5" id="linearGradientSkk990b3y3wi"><stop offset="0%" stop-color="#028af4"></stop><stop offset="0%" stop-color="#ffffff"></stop><stop offset="100%" stop-color="#ffffff"></stop></linearGradient><linearGradient x1="0" y1="0.5" x2="1" y2="0.5" id="linearGradientSkk990b3y3wm"><stop offset="0%" stop-color="#028af4"></stop><stop offset="100%" stop-color="#028af4"></stop></linearGradient><linearGradient x1="0" y1="0.5" x2="1" y2="0.5" id="linearGradientSkk990b3y3wp"><stop offset="0%" stop-color="#028af4"></stop><stop offset="100%" stop-color="#028af4"></stop></linearGradient><linearGradient x1="0" y1="0.5" x2="1" y2="0.5" id="linearGradientSkk990b3y3ws"><stop offset="0%" stop-color="#028af4"></stop><stop offset="100%" stop-color="#028af4"></stop></linearGradient></defs><g class="svg-clip svg-visible" transform="matrix(0,0.3956,-0.3956,0,72.7867,-0.9845)" style="cursor: move; opacity: 1;"><rect x="0" y="0" width="187" height="186" fill="none" class="svg-hitbox" style=""></rect><svg width="187.0337218024264" height="186.77" viewBox="-5.131860901213205,-5,187.0337218024264,186.77" class="thumb"><g><circle cx="88.385" cy="88.385" r="88.385" fill="url('#linearGradientSkk990b3y3wi')" stroke="none" style=""></circle></g></svg></g><g class="svg-clip svg-visible" transform="matrix(0.5568,0,0,0.5568,25.0426,19.2975)" style="cursor: move; opacity: 1;"><rect x="0" y="0" width="54" height="60" fill="none" class="svg-hitbox" style=""></rect><svg width="54.283998488064526" height="60.77245365939481" viewBox="22.85800177227331,23.310546340605185,54.283998488064526,60.77245365939481"><g><path d="M65.715,79.083c-3.551,0-6.431-2.88-6.431-6.431c0-15.46-11.01-28.752-26.177-31.594c-3.492-0.654-5.789-4.014-5.139-7.5   c0.656-3.492,4.02-5.791,7.506-5.136c21.246,3.981,36.668,22.584,36.668,44.23C72.143,76.203,69.263,79.083,65.715,79.083z" fill="url('#linearGradientSkk990b3y3wm')" stroke="none" style=""></path></g></svg></g><g class="svg-clip svg-visible" transform="matrix(0.5568,0,0,0.5568,24.7522,5.7639)" style="cursor: move; opacity: 1;"><rect x="0" y="0" width="77" height="83" fill="none" class="svg-hitbox" style=""></rect><svg width="77.14463083752358" height="83.87771854211059" viewBox="22.855369162476425,0.2052814578894191,77.14463083752358,83.87771854211059"><g><path d="M88.572,79.083c-3.551,0-6.431-2.88-6.431-6.431c0-27.938-20.892-51.424-48.595-54.632   c-3.527-0.409-6.053-3.599-5.648-7.126c0.41-3.526,3.583-6.047,7.128-5.647C69.216,9.207,95,38.185,95,72.652   C95,76.203,92.123,79.083,88.572,79.083z" fill="url('#linearGradientSkk990b3y3wp')" stroke="none" style=""></path></g></svg></g><g class="svg-clip svg-visible" transform="matrix(0.5568,0,0,0.5568,12.3087,20.2154)" style="cursor: move; opacity: 1;"><rect x="0" y="0" width="54" height="75" fill="none" class="svg-hitbox" style=""></rect><svg width="54.286" height="75.723" viewBox="0,24.070999999999998,54.286,75.723"><g><path d="M27.143,94.794C14.932,94.794,5,84.862,5,72.652V35.498c0-3.549,2.877-6.427,6.428-6.427s6.428,2.878,6.428,6.427v37.155   c0,5.121,4.166,9.287,9.287,9.287s9.287-4.166,9.287-9.287c-0.003-3.505-1.942-6.674-5.068-8.279   c-3.158-1.62-4.406-5.493-2.786-8.655c1.62-3.16,5.496-4.405,8.654-2.788c7.433,3.814,12.056,11.37,12.056,19.72   C49.285,84.862,39.354,94.794,27.143,94.794z" fill="url('#linearGradientSkk990b3y3ws')" stroke="none" style=""></path></g></svg></g></svg>